<svg width="1935" height="347" viewBox="0 0 1935 347" fill="none" xmlns="http://www.w3.org/2000/svg">
<g clip-path="url(#clip0_105_98)">
<path fill-rule="evenodd" clip-rule="evenodd" d="M322.608 58.0995C363.162 73.5197 371.355 134.733 411.453 151.302C453.198 168.553 504.155 131.919 545.464 150.19C586.512 168.346 633.019 204.838 633.984 249.73C635.075 300.471 579.087 333.113 550.296 374.899C532.39 400.886 506.597 421.268 495.447 450.796C481.649 487.335 498.843 532.181 478.35 565.427C457.558 599.158 420.083 620.682 382.684 633.737C343.863 647.288 301.463 648.169 260.92 641.324C219.676 634.361 177.575 621.551 146.249 593.818C115.444 566.547 110.271 520.966 86.7953 487.173C61.1103 450.2 7.92478 429.267 1.02513 384.773C-5.79375 340.799 22.5521 296.314 52.0322 262.994C79.4941 231.955 135.356 237.835 160.308 204.743C188.674 167.124 162.617 101.56 197.573 69.9765C228.988 41.5926 283.041 43.0545 322.608 58.0995Z" fill="#C0E8D1"/>
<path fill-rule="evenodd" clip-rule="evenodd" d="M916.943 364.032C927.884 312.076 979.687 282.244 1008.44 237.61C1037.15 193.044 1037.66 124.866 1085.6 102.235C1133.49 79.6257 1186.07 131.078 1238.98 128.775C1310.66 125.654 1385.65 47.1367 1445.59 86.5642C1502.52 124.013 1458.58 218.632 1475.81 284.561C1492.29 347.625 1564.75 401.727 1544.11 463.558C1523.33 525.857 1442.03 542.163 1381.42 567.448C1335.72 586.514 1287.31 589.16 1237.84 591.323C1193.11 593.279 1150.59 588.685 1106.78 579.455C1051.06 567.716 984.516 572.75 946.867 530.026C908.927 486.972 905.119 420.186 916.943 364.032Z" fill="#C0E8D1"/>
<path fill-rule="evenodd" clip-rule="evenodd" d="M1569.73 117.259C1620.7 122.157 1657.35 164.111 1701.04 190.819C1745.94 218.264 1794.62 237.302 1829.93 276.317C1875.57 326.741 1947.08 380.82 1933.3 447.421C1919.27 515.232 1822.93 524.193 1769.52 568.27C1727.39 603.042 1704.72 661.164 1653 678.745C1600.6 696.556 1545.49 673.178 1491.11 662.905C1430.4 651.436 1364.67 653.028 1315.93 615.069C1262.9 573.781 1210.37 513.568 1213.1 446.423C1215.85 378.904 1289.25 339.771 1329.32 285.357C1360.03 243.652 1378.68 193.602 1421.13 163.923C1464.56 133.557 1516.98 112.191 1569.73 117.259Z" fill="#C0E8D1"/>
<path fill-rule="evenodd" clip-rule="evenodd" d="M692.44 141.064C743.534 116.15 788.838 71.9693 845.631 74.3725C902.5 76.779 944.133 124.405 992.89 153.777C1046.32 185.965 1117.1 199.677 1145.67 255.124C1174.62 311.296 1171.03 385.307 1140.79 440.795C1112.21 493.25 1043 502.899 992.916 535.458C956.218 559.315 927.001 592.031 885.731 606.611C841.14 622.364 793.669 632.798 747.598 622.123C698.823 610.821 648.975 587.65 621.965 545.494C595.573 504.301 620.136 449.586 606.882 402.494C589.32 340.09 512.203 288.737 532.366 227.124C551.598 168.358 636.862 168.164 692.44 141.064Z" fill="#C0E8D1"/>
</g>
<defs>
<clipPath id="clip0_105_98">
<rect width="1935" height="347" fill="white"/>
</clipPath>
</defs>
</svg>
